<svg xmlns="http://www.w3.org/2000/svg" width="250" height="250" fill="none" viewBox="0 0 250 250">
<!-- SVG created with Arrow, by QuiverAI (https://quiver.ai) -->
  <path d="m81.41 70.44c-2.39 1.95-5.74 1.73-8.65 0.01-5.88-3.32-10.57-7.86-13.88-13.04-1.11-1.78-2.72-1.32-3.6-0.23-10.31 10.79-23.14 15.28-41.96 15.74-2.48-0.03-2.98 2.36-1.8 4.52 1.75 3.41 2.1 7.21 2.01 11.53v34.32c-4.8 3.5-6.9 6.89-7.95 11.04-0.67 2.81 0.65 3.21 2.18 2.93 9.53-1.3 18.41 4.89 27.12 12.1 1.49 1.31 2.93 0.75 3.74-0.09l17.74-15.66 0.12 36.46c-7.58-5.4-12.54-7.94-19.87-7.76-15.36 0.4-26.47 11.97-30 25.43-0.88 2.94 1.16 3.23 2.31 2.07 4.92-4.93 10.01-5.29 14.16-4.93 7.24 0.84 11.68 3.95 16.83 7.87 1.27 0.96 2.63 0.56 3.71-0.83 8.33-9.45 21.19-16.98 34.97-17.38 1.92 0.15 2.67 0.01 3.01-2.64 0.17-1.69-1.5-3.04-2.57-6.04-1.27-3.65-1.71-5.18-1.56-8.68l-0.15-69.02c0-1.75 0.89-2.58 2.35-4.1 3.06-3.21 6.04-6.95 6.18-10.05 0.06-2.95-1.79-5.26-4.44-3.57zm-24.89 51.79-8.81 8.07c-4.55-4.4-8.7-6.9-13.86-9.03l0.43-44.02 8.66-3.29c4.62 5.62 9.01 9.75 13.67 13.13l-0.09 35.14z" fill="url(#paint0_linear_92_2408)"/>
  <path d="m160.1 70.38c-2.14 1.69-4.89 1.8-7.25 0.69-7.09-2.8-11.91-8.64-14.74-13.58-1.05-1.74-2.88-1.81-3.77-0.72-10.13 10.84-23.39 15.68-39.89 16.36-2.3-0.14-3.36 1.96-2.33 3.99 1.72 3.05 1.97 6.59 1.82 11.39l-0.19 34.5c-4.55 3.21-6.69 6.31-8.01 11.71-0.52 2.04 0.76 2.7 2.48 2.34 9.43-0.9 18.92 5.69 27.1 12.64 1.12 0.74 2.62 0.05 3.14-0.69l17.02-15.35v36.4c-7.71-5.68-11.77-7.87-20.56-7.75-13.85 0.35-25.18 11.66-28 24.8-1.06 3.66 1.03 3.66 2.23 2.5 4.77-4.42 9-5.39 14.69-4.85 6.18 0.89 10.35 3.32 16.23 7.96 1.05 0.74 2.37 0 3.1-1.09 8.58-9.92 20.78-16.51 33.97-17.01 2.3 0.22 2.97-0.08 3.27-2.11 0.44-2.2-1.39-3.16-2.5-6.45-1.32-3.21-1.57-5.02-1.57-7.82l0.17-69.2c0-1.79 0.34-2.93 1.75-4.27 3.06-3.05 6.03-7.25 5.56-11.45-0.37-2.66-1.98-3.86-3.72-2.94zm-24.62 51.83-8.66 7.71c-4.11-4.06-8.5-6.75-12.7-8.79l0.15-43.9 7.9-3.29c4.17 5.47 8.65 9.9 13.31 13.11v35.16z" fill="url(#paint1_linear_92_2408)"/>
  <path d="m241.9 70.21c-1.95 1.64-4.15 2.04-7.65 0.69-6.39-2.66-11.4-7.64-16-13.37-1.05-1.43-3-1.43-3.8-0.22-9.99 10.55-22.6 15.06-41.29 16.08-2.82-0.14-3.46 2.32-2.44 4.35 1.75 3.21 2.1 7.07 2.01 12.33l-0.18 32.94c-4.55 3.36-6.6 6.72-7.65 11.1-0.52 2.53 0.86 3.31 2.45 2.81 9.61-1.17 18.55 5.39 26.95 12.46 1.32 1.17 2.68 0.73 3.46-0.29l17.17-15.44v36.4c-7.71-5.84-11.63-7.98-20.51-7.79-13.98 0.5-25.06 11.21-28.29 24.85-0.99 3.38 1.07 3.45 2.03 2.39 4.92-4.89 8.8-5.44 14.49-4.78 6.18 0.84 10.68 3.61 16.42 7.97 1.38 0.96 2.76 0.06 3.58-1.28 8.33-9.92 20.31-16.29 34.1-17.07 2.4 0.27 3.05-0.13 3.4-1.92 0.52-2.04-1.31-3.65-2.43-6.31-1.06-2.94-1.3-5.26-1.27-8.31l0.24-68.49c0-1.69 0.46-2.9 1.78-4.21 3.88-3.86 6.63-7.36 6.57-11.16-0.15-2.87-1.47-4.44-3.14-3.73zm-26.97 52-8.28 7.71c-4.31-4.2-8.6-6.52-13.08-8.65l-0.22-44.04 8.11-3.36c4.69 5.47 9.04 9.82 13.47 13.18v35.16z" fill="url(#paint2_linear_92_2408)"/>
  <defs>
    <linearGradient id="paint0_linear_92_2408" x1="45.77" x2="45.77" y1="56" y2="193.4" gradientUnits="userSpaceOnUse">
      <stop offset="0" stop-color="#ff5ebd"/>
      <stop offset="1" stop-color="#64f3ff"/>
    </linearGradient>
    <linearGradient id="paint1_linear_92_2408" x1="125" x2="125" y1="56" y2="193.4" gradientUnits="userSpaceOnUse">
      <stop offset="0" stop-color="#ff5ebd"/>
      <stop offset="1" stop-color="#64f3ff"/>
    </linearGradient>
    <linearGradient id="paint2_linear_92_2408" x1="205" x2="205" y1="56" y2="193.3" gradientUnits="userSpaceOnUse">
      <stop offset="0" stop-color="#ff5ebd"/>
      <stop offset="1" stop-color="#64f3ff"/>
    </linearGradient>
  </defs>
</svg>