<svg xmlns="http://www.w3.org/2000/svg" width="250" height="250" fill="none" viewBox="0 0 250 250">
<!-- SVG created with Arrow, by QuiverAI (https://quiver.ai) -->
  <path d="m145.9 234.4 37.68-10.83" stroke="#ffffff" stroke-linecap="round" stroke-linejoin="round" stroke-width="2.6"/>
  <path d="m129.1 239 7.21-1.94" stroke="#ffffff" stroke-linecap="round" stroke-linejoin="round" stroke-width="2.6"/>
  <path d="m40.97 168v49.3" stroke="#ffffff" stroke-linecap="round" stroke-linejoin="round" stroke-width="2.6"/>
  <path d="m40.72 139v17.41" stroke="#ffffff" stroke-linecap="round" stroke-linejoin="round" stroke-width="2.6"/>
  <path d="m190.4 65.46v54.56" stroke="#ffffff" stroke-linecap="round" stroke-linejoin="round" stroke-width="2.6"/>
  <path d="m190.4 130.5v17.49" stroke="#ffffff" stroke-linecap="round" stroke-linejoin="round" stroke-width="2.6"/>
  <path d="m48.58 61.2 49.49-12.77" stroke="#ffffff" stroke-linecap="round" stroke-linejoin="round" stroke-width="2.6"/>
  <path d="m107.1 46.58 7.21-1.94" stroke="#ffffff" stroke-linecap="round" stroke-linejoin="round" stroke-width="2.6"/>
  <path d="m48.42 68.96 91.49-23.95 2.77 0.73" stroke="#ffffff" stroke-linecap="round" stroke-linejoin="round" stroke-width="2.6"/>
  <path d="m154.9 51.74 28.54 13.36v150l-95.07 27.36-39.93-24.83v-148.7l19.07 9.85 73.22-19.69" stroke="#ffffff" stroke-linecap="round" stroke-linejoin="round" stroke-width="2.6"/>
  <path d="m48.71 69.69 18.78 48.13 20.94-28.37-21.02-10.35" stroke="#ffffff" stroke-linecap="round" stroke-linejoin="round" stroke-width="2.6"/>
  <path d="m67.49 117.8v81.87l20.22 42.34" stroke="#ffffff" stroke-linecap="round" stroke-linejoin="round" stroke-width="2.6"/>
  <path d="m48.71 217.3 18.78-17.59" stroke="#ffffff" stroke-linecap="round" stroke-linejoin="round" stroke-width="2.6"/>
  <path d="m68.46 78.96 114.6-13.86" stroke="#ffffff" stroke-linecap="round" stroke-linejoin="round" stroke-width="2.6"/>
  <path d="m88.11 89.3 94.98-24.2" stroke="#ffffff" stroke-linecap="round" stroke-linejoin="round" stroke-width="2.6"/>
  <path d="m88.43 90.05v151.8" stroke="#ffffff" stroke-linecap="round" stroke-linejoin="round" stroke-width="2.6"/>
  <path d="m148.3 21.15-8.27 42.18c-0.51 2.69 10.02 3.13 10.57 1.29l8.34-40.7 4.79-5.82 2.26-1.14 40.63-0.59v-9.37h-41.6l-7.06 1.81-5.07 3.84-4.59 8.5z" stroke="#ffffff" stroke-linecap="round" stroke-linejoin="round" stroke-width="2.6"/>
  <path d="m206.6 7c-1.85 0-1.46 8.86 0 9.37 2.5 0.94 2.54-9.37 0-9.37z" stroke="#ffffff" stroke-linecap="round" stroke-linejoin="round" stroke-width="2.6"/>
  <path d="m153.1 12.91 5.94 6.07" stroke="#ffffff" stroke-linecap="round" stroke-linejoin="round" stroke-width="2.6"/>
  <path d="m157.2 10.12 5.13 6.84" stroke="#ffffff" stroke-linecap="round" stroke-linejoin="round" stroke-width="2.6"/>
  <path d="m165.2 8.09 1.55 8.01" stroke="#ffffff" stroke-linecap="round" stroke-linejoin="round" stroke-width="2.6"/>
  <path d="m156.9 23.73-7.61-4.75" stroke="#ffffff" stroke-linecap="round" stroke-linejoin="round" stroke-width="2.6"/>
  <path d="m119.7 116.1c0 8.05 0.39 15.03-4.37 21.5-3.27 4.47-10.92 6.05-13.94 4.82-3.61-1.44-3.66-4.95-3.66-8.76 0-1.81 0.78-1.52 7.67-2.24 1.3-0.14 0.65 1.97 1.62 2.74 1.25 1.05 2.95-1.01 3.24-11.05-1.54 1.71-3.76 3.15-6.33 3.15-5.96 0-6.52-6.26-6.52-10.26 0-9 4.27-17.72 13.52-17.72 7.97 0 8.77 7.86 8.77 17.82zm-14.23-2.06c0 3.67 0.16 5.27 2.82 5.27 3.91 0 4.1-4.61 4.1-8.6 0-3.19-0.04-5.8-3.05-5.8-3.55 0-3.87 4.92-3.87 9.13z" stroke="#ffffff" stroke-linecap="round" stroke-linejoin="round" stroke-width="2.6"/>
  <path d="m147.6 110.2c0 8.05 0.39 15.03-4.37 21.5-3.28 4.47-10.92 5.27-13.94 4.03-3.61-1.43-3.66-4.94-3.66-8.76 0-1.8 0.78-1.51 7.67-2.23 1.3-0.14 0.65 1.97 1.62 2.74 1.25 1.05 2.95-1.01 3.24-11.05-1.54 1.71-3.76 3.15-6.33 3.15-5.96 0-7.29-2.49-7.29-10.61 0-9 4.27-18.68 14.29-18.68 7.97 0 8.77 5.88 8.77 19.91zm-15.23-3.85c0 3.67 0.16 5.27 2.82 5.27 3.91 0 4.1-4.61 4.1-8.6 0-3.19-0.04-5.8-3.05-5.8-3.55 0-3.87 4.92-3.87 9.13z" stroke="#ffffff" stroke-linecap="round" stroke-linejoin="round" stroke-width="2.6"/>
  <path d="m174.8 102.6c0 8.87 0.39 16.95-6.11 22.68-3.36 3.05-10.21 3.67-12.19 2.42-3.45-1.34-4.4-4.05-4.5-8.63-0.04-1.89 0.77-1.55 7.2-2.7 1.23-0.25 0.62 2.35 1.55 3.4 1.2 1.38 4 0.48 4.61-3.74l0.51-8.49c-1.46 1.69-2.92 3.34-7.69 3.34-5.75 0-8.08-2.19-8.08-8.9 0-9.75 4.91-18.05 15.26-18.05 9.26 0 9.44 8.22 9.44 18.67zm-15.51-4.44c0 3.89 0.36 5.99 2.64 5.99 4.19 0 4.55-4.03 4.55-7.92 0-3.51-0.04-6.11-2.92-6.11-3.71 0-4.27 4.11-4.27 8.04z" stroke="#ffffff" stroke-linecap="round" stroke-linejoin="round" stroke-width="2.6"/>
  <path d="m169.4 177.4c0 17.44-15.08 38.65-38.64 38.65-17.45 0-28.97-14.93-28.97-30.09 0-18.85 14.48-42.11 37.97-42.11 17.81 0 29.64 13.94 29.64 33.55z" stroke="#ffffff" stroke-linecap="round" stroke-linejoin="round" stroke-width="2.6"/>
  <path d="m124 148.9c0.87 0.71 2.06 2.17 1.51 3.31-0.93 2.02-4.69 3.02-4.69 5.43 0 1.87 1.68 2.71 2.82 2.16 1.97-0.98 3.94-3.8 6.12-1.9 2.1 1.81 2.46 3.99 0.54 5.01-3.07 1.61-5.73 3.41-7.73 6.71-1.96 3.28-3.5 4.96-6.54 4.56-2.69-0.37-4.76 0.93-4.76 3.18 0 2.41 2.72 3.92 4.11 4.24 2.46 0.6 2.21 3.18 5.36 3.28 4.15 0.12 6.4 0.49 9.59 2.97 1.71 1.3 3.34 1.66 6.78 2.33 2.84 0.56 3.3 2.34 2.06 4.87-0.7 1.48-0.83 3.93-3.56 6.85-3.38 3.7-6.84 8.25-5.93 10.11-0.84 1.05-3.74 0.14-4.23-4.01-0.61-4.9-0.98-7.9-4.36-10.3-2.71-1.92-3.32-3.84-2.62-7.72 0.46-2.48-2.75-3.65-6.55-5.89-4.04-2.09-5.93-4.04-6.78-10.4" stroke="#ffffff" stroke-linecap="round" stroke-linejoin="round" stroke-width="2.6"/>
  <path d="m151 148.3c-0.92 0.77-1.85 3.51-0.81 4.71 1.19 1.4 3.87 1.98 3.17 4.39s-5.02 2.71-5.02 6.22c0 2.19 2.34 1.86 4.54 0.67 2.2-1.2 3.08-1.2 4.75-0.67 2.25 0.77 4.45 1.09 7.35-0.44" stroke="#ffffff" stroke-linecap="round" stroke-linejoin="round" stroke-width="2.6"/>
  <path d="m167.4 166.4c-1.29 1.44-2.4 2.23-5.66 1.66-3.86-0.7-6.77-1.75-9.61 0.66-4.55 3.82-5.35 7.45-3.56 11.24 1.5 3.39 5.15 3.31 6.61 2.64 2.85-1.3 4.85 1.34 4.85 4.49 0 2.71-1.94 8.11-0.5 11.39 0.54 1.31 1.14 1.31 1.54 1.31" stroke="#ffffff" stroke-linecap="round" stroke-linejoin="round" stroke-width="2.6"/>
  <path d="m132.3 145.3c-1.16 1.4-1.59 3.41-0.89 4.98 0.94 2.22 1.47 5.11 3.35 3.56 1.78-1.47 4.67-5.12 5.16-5.64 0.88-0.95 0.32-2.73-0.49-3.5" stroke="#ffffff" stroke-linecap="round" stroke-linejoin="round" stroke-width="2.6"/>
</svg>